<svg width="107" height="77" fill="none" xmlns="http://www.w3.org/2000/svg"><circle cx="53.154" cy="38.675" r="12.83" stroke="#05C2DF"/><path d="M66.817 25.046c4.418 2.923 7.332 7.936 7.332 13.63 0 5.693-2.914 10.706-7.332 13.628M66.985 52.172l5.999 7.665" stroke="#05C2DF"/><path d="M72.816 60.004c7.028-4.61 11.664-12.515 11.664-21.495s-4.636-16.886-11.665-21.495l-5.998 8.165" stroke="#05C2DF"/><path d="M79.482 9.015c9.438 6.253 15.663 16.979 15.663 29.16 0 12.182-6.225 22.908-15.663 29.16" stroke="#05C2DF"/><path d="M79.482 9.182 85.481.684c12.25 8.075 20.329 21.927 20.329 37.658 0 15.732-8.08 29.583-20.329 37.658l-6.165-8.664M39.49 25.046c-4.419 2.923-7.333 7.936-7.333 13.63 0 5.693 2.914 10.706 7.332 13.628M39.325 52.172l-5.999 7.665" stroke="#05C2DF"/><path d="M33.49 60.004c-7.028-4.61-11.664-12.515-11.664-21.495s4.636-16.886 11.664-21.495l6 8.165" stroke="#05C2DF"/><path d="M26.828 9.015c-9.438 6.253-15.663 16.979-15.663 29.16 0 12.182 6.225 22.908 15.663 29.16" stroke="#05C2DF"/><path d="M26.827 9.182 20.83.684C8.579 8.759.5 22.611.5 38.342.5 54.074 8.58 67.925 20.829 76l6.165-8.664" stroke="#05C2DF"/></svg>