<svg width="89" height="81" fill="none" xmlns="http://www.w3.org/2000/svg"><rect x="2.081" y="1.936" width="85.367" height="60.28" rx="3.5" stroke="#05C2DF"/><path stroke="#05C2DF" d="M1.581 52.163h86.367"/><path stroke="#05C2DF" stroke-linecap="round" d="M40.522 57.429h7.952"/><path stroke="#05C2DF" d="M27.355 62.738h34.284v5.224H27.355zM16.823 74.228h55.349v5.224H16.823zM62.003 68.483l8.84 5.223h-52.69l8.84-5.223h35.01Z"/><path d="m25.08 13.795 8 22.364h.091l8-22.364h.773l-8.318 23.273h-1l-8.318-23.273h.772Zm21.537 23.273V13.795h6.819c1.303 0 2.454.277 3.454.83a5.997 5.997 0 0 1 2.364 2.318c.575.993.863 2.155.863 3.489 0 1.318-.288 2.473-.863 3.466a6.018 6.018 0 0 1-2.364 2.306c-1 .546-2.151.819-3.455.819h-6.454v-.728h6.454c1.167 0 2.197-.242 3.091-.727a5.301 5.301 0 0 0 2.103-2.045c.507-.88.761-1.91.761-3.091 0-1.19-.254-2.227-.761-3.114a5.278 5.278 0 0 0-2.103-2.057c-.894-.492-1.924-.738-3.09-.738h-6.091v22.545h-.728Zm8.864-10.59 5.727 10.59h-.818l-5.727-10.59h.818Z" fill="#05C2DF"/></svg>