<svg width="248" height="69" fill="none" xmlns="http://www.w3.org/2000/svg"><path opacity=".45" d="M51 7c-4.88-3.411-10.087-4.648-16-5-5.913-.352-11.44 1.003-16.679 3.812a32.697 32.697 0 0 0-12.676 12.18A33.408 33.408 0 0 0 1 35.08a33.404 33.404 0 0 0 4.727 17.066A32.69 32.69 0 0 0 18.46 64.263a32.036 32.036 0 0 0 17.066 3.67C41.44 67.554 47.135 65.436 52 62" stroke="#05C2DF" stroke-width="2" stroke-miterlimit="1.517"/><path d="M34.03 61.155c14.588 0 26.413-11.79 26.413-26.335 0-14.544-11.825-26.335-26.412-26.335-14.588 0-26.413 11.79-26.413 26.335 0 14.545 11.825 26.335 26.413 26.335Z" stroke="#05C2DF" stroke-miterlimit="10"/><path opacity=".45" d="M86 12H56v2h30v-2ZM86 56H56v2h30v-2Z" fill="#05C2DF"/><path d="M45 35 27.75 45.392V24.608L45 35Z" fill="#05C2DF"/><path opacity=".45" d="M91 12h-2v2h2v-2ZM88 12h-2v2h2v-2ZM94 12h-2v2h2v-2ZM97 12h-2v2h2v-2ZM100 12h-2v2h2v-2ZM104 12h-2v2h2v-2ZM108 12h-2v2h2v-2ZM112 12h-2v2h2v-2ZM117 12h-2v2h2v-2ZM122 12h-2v2h2v-2ZM127 12h-2v2h2v-2ZM132 12h-2v2h2v-2ZM137 12h-2v2h2v-2ZM142 12h-2v2h2v-2ZM153.6 12.23H152v1.6h1.6v-1.6ZM159.6 12.23H158v1.6h1.6v-1.6ZM165.6 12.23H164v1.6h1.6v-1.6ZM171.3 12.43H170v1.3h1.3v-1.3ZM178.3 12.43H177v1.3h1.3v-1.3ZM185.3 12.43H184v1.3h1.3v-1.3ZM192.3 12.43H191v1.3h1.3v-1.3ZM200.3 12.43H199v1.3h1.3v-1.3ZM209.3 12.43H208v1.3h1.3v-1.3ZM147.6 12.23H146v1.6h1.6v-1.6ZM248 12.5h-1v1h1v-1ZM234 12.5h-1v1h1v-1ZM221 12.5h-1v1h1v-1ZM91 56h-2v2h2v-2ZM88 56h-2v2h2v-2ZM94 56h-2v2h2v-2ZM97 56h-2v2h2v-2ZM100 56h-2v2h2v-2ZM104 56h-2v2h2v-2ZM108 56h-2v2h2v-2ZM112 56h-2v2h2v-2ZM117 56h-2v2h2v-2ZM122 56h-2v2h2v-2ZM127 56h-2v2h2v-2ZM132 56h-2v2h2v-2ZM137 56h-2v2h2v-2ZM142 56h-2v2h2v-2ZM153.6 56.23H152v1.6h1.6v-1.6ZM159.6 56.23H158v1.6h1.6v-1.6ZM165.6 56.23H164v1.6h1.6v-1.6ZM171.3 56.43H170v1.3h1.3v-1.3ZM178.3 56.43H177v1.3h1.3v-1.3ZM185.3 56.43H184v1.3h1.3v-1.3ZM192.3 56.43H191v1.3h1.3v-1.3ZM200.3 56.43H199v1.3h1.3v-1.3ZM209.3 56.43H208v1.3h1.3v-1.3ZM147.6 56.23H146v1.6h1.6v-1.6ZM248 56.5h-1v1h1v-1ZM234 56.5h-1v1h1v-1ZM221 56.5h-1v1h1v-1Z" fill="#05C2DF"/></svg>